<svg width="78" height="86" viewBox="0 0 78 86" fill="none" xmlns="http://www.w3.org/2000/svg">
<g filter="url(#filter0_d_355_784)">
<path d="M63.8277 45.8719L42.6807 58.0804L29.1914 65.869L28.9733 65.995L21.5344 70.2897C16.4086 73.2495 10 69.5501 10 63.6298V14.7949C10 8.87464 16.4079 5.17597 21.5344 8.13505L29.779 12.8949L30.8472 13.5113L42.6807 20.3436L47.157 22.9276L47.6165 23.1936L63.827 32.5522C68.9535 35.5119 68.9535 42.9121 63.8277 45.8719Z" fill="#681D29"/>
<path d="M33.2236 48.1962C32.2553 48.3953 30.665 48.5171 28.4553 47.8289C27.7664 45.6192 27.8882 44.0282 28.088 43.0606C28.9873 38.7032 33.7233 36.0489 40.0088 36.2762C40.2353 42.5609 37.581 47.2976 33.2236 48.1962Z" fill="#F7DAAB"/>
<path d="M37.5345 52.7147C36.9019 52.6774 35.9068 52.4937 34.7098 51.7316C34.7689 50.3143 35.187 49.3925 35.5177 48.8521C37.0081 46.4193 40.4668 45.6101 44.2457 46.7536C43.0248 50.5079 40.3831 52.8829 37.5345 52.7147Z" fill="#2F050F"/>
<path d="M50.0197 49.8323C49.468 49.7584 48.5932 49.5227 47.5081 48.724C47.473 47.3771 47.7805 46.5249 48.0345 46.0302C49.1801 43.803 52.1336 43.2421 55.4825 44.5616C54.6507 48.0632 52.5023 50.1652 50.0197 49.8323Z" fill="#D86B79"/>
<path d="M62.6159 46.4932C61.9678 46.9246 60.8313 47.4847 58.9545 47.6466C57.6745 46.2638 57.2108 45.0844 57.0215 44.33C56.17 40.9318 58.7554 37.6174 63.492 35.9116C65.8494 40.3597 65.5321 44.5517 62.6159 46.4932Z" fill="#2F050F"/>
<path d="M50.7219 41.5384C50.1562 41.6651 49.223 41.7531 47.9134 41.3702C47.475 40.079 47.5215 39.143 47.6242 38.5716C48.0859 36.0024 50.8289 34.3951 54.5262 34.4655C54.7563 38.1564 53.2686 40.9663 50.7219 41.5384Z" fill="#D86B79"/>
<path d="M46.5961 35.0601C46.1486 35.4317 45.3555 35.9363 44.0142 36.1917C43.0389 35.2368 42.6575 34.3775 42.4907 33.8202C41.7406 31.3108 43.4611 28.6213 46.7925 26.9964C48.6664 30.1933 48.6101 33.386 46.5961 35.0601Z" fill="#D86B79"/>
<path d="M38.8455 31.6711C38.4732 32.094 37.785 32.6971 36.5127 33.1559C35.3805 32.4163 34.8506 31.6704 34.5853 31.1736C33.3932 28.9358 34.5965 26.1252 37.576 24.0542C39.9982 26.7565 40.521 29.7683 38.8455 31.6711Z" fill="#D86B79"/>
<path d="M28.3118 30.8527C27.7727 30.9892 26.8875 31.099 25.6546 30.7732C25.2661 29.5593 25.3309 28.6691 25.4393 28.1237C25.9304 25.6699 28.563 24.0655 32.0653 24.0268C32.2054 27.5256 30.7367 30.2369 28.3118 30.8527Z" fill="#D86B79"/>
<path d="M25.9009 21.34C25.3597 21.0761 24.5533 20.5512 23.7785 19.4407C24.3408 18.2093 25.0395 17.5471 25.5244 17.1903C27.7073 15.583 31.0323 16.1298 33.9329 18.5189C31.5094 21.3914 28.3378 22.5279 25.9009 21.34Z" fill="#D86B79"/>
<path d="M44.3344 55.3029C43.9565 54.8427 43.4449 54.0285 43.1937 52.6612C44.1817 51.683 45.0663 51.3073 45.6398 51.1461C48.2217 50.4192 50.9689 52.208 52.61 55.6189C49.3138 57.4787 46.0367 57.3753 44.3344 55.3029Z" fill="#D86B79"/>
<path d="M36.7724 56.6322C36.7998 56.0305 36.9589 55.0861 37.6569 53.956C38.9827 54.0292 39.849 54.4387 40.3578 54.7603C42.6497 56.2085 43.4484 59.5096 42.4252 63.0915C38.9018 61.8832 36.6499 59.3407 36.7724 56.6322Z" fill="#D86B79"/>
<path d="M30.5876 54.0672C30.7825 53.569 31.192 52.816 32.1308 52.0398C33.2856 52.4276 33.9379 52.9842 34.2982 53.3797C35.9202 55.1593 35.6915 58.1262 33.7683 60.8791C30.9866 58.9973 29.7107 56.3092 30.5876 54.0672Z" fill="#D86B79"/>
<path d="M22.305 44.6734C21.977 45.1893 21.3444 45.95 20.0721 46.6466C18.7611 46.0253 18.0856 45.3033 17.7281 44.8071C16.1208 42.5757 16.9554 39.3471 19.7808 36.6385C22.7582 39.1775 23.7792 42.3519 22.305 44.6734Z" fill="#D86B79"/>
<path d="M15.8197 47.2391C15.7767 47.7803 15.5994 48.6367 14.9041 49.6873C13.6445 49.6908 12.8317 49.3692 12.356 49.1075C10.2147 47.9281 9.54543 45.007 10.6179 41.739C13.938 42.6383 16.0111 44.8022 15.8197 47.2391Z" fill="#2F050F"/>
<path d="M15.3573 54.0932C15.6374 53.8645 16.137 53.5549 16.9969 53.3951C17.6493 53.9771 17.916 54.5014 18.037 54.842C18.581 56.3753 17.5346 58.0248 15.4228 59.0262C14.1371 57.0755 14.097 55.122 15.3573 54.0932Z" fill="#2F050F"/>
<path d="M18.861 57.5435C19.1756 57.2866 19.7364 56.939 20.7019 56.7596C21.4345 57.4133 21.7335 58.0016 21.8701 58.3844C22.4809 60.1057 21.3057 61.9578 18.9349 63.0816C17.4902 60.891 17.4459 58.6983 18.861 57.5435Z" fill="#2F050F"/>
<path d="M22.217 62.5123C22.4485 62.3237 22.8616 62.0669 23.5724 61.9353C24.1114 62.4166 24.3317 62.8494 24.4323 63.1309C24.882 64.3983 24.0171 65.7606 22.2719 66.5889C21.2086 64.9767 21.1755 63.3624 22.217 62.5123Z" fill="#2F050F"/>
<path d="M25.891 61.8663C25.6236 61.6946 25.2288 61.3611 24.8615 60.6855C25.1704 59.9818 25.5364 59.6159 25.7883 59.4224C26.922 58.5505 28.5855 58.9769 29.9971 60.4702C28.7157 62.076 27.0937 62.6404 25.891 61.8663Z" fill="#F7DAAB"/>
<path d="M23.7286 57.2184C23.4246 57.0227 22.9749 56.6434 22.5576 55.875C22.9095 55.0742 23.3254 54.659 23.6118 54.438C24.9017 53.4465 26.7939 53.9314 28.3991 55.6294C26.9417 57.4562 25.0973 58.098 23.7286 57.2184Z" fill="#F7DAAB"/>
<path d="M27.5806 12.4917C27.5011 12.8126 27.3006 13.322 26.7334 13.954C25.884 13.9751 25.3668 13.797 25.0712 13.6493C23.7391 12.9836 23.5632 11.2651 24.5934 9.31445C26.7453 9.79719 27.9388 11.047 27.5806 12.4917Z" fill="#2F050F"/>
<path d="M32.719 11.1553C32.4488 11.396 31.9492 11.7359 31.0203 11.9723C30.1871 11.4994 29.7938 11.0406 29.5967 10.7366C28.71 9.37004 29.5742 7.73181 31.743 6.58478C33.5332 8.26241 33.9343 10.0709 32.719 11.1553Z" fill="#D86B79"/>
<path d="M38.6935 11.0674C38.3628 11.2588 37.7808 11.4994 36.8132 11.5304C36.1419 10.833 35.8928 10.2546 35.7886 9.88656C35.3221 8.23074 36.6296 6.70159 39.0601 6C40.3134 8.19837 40.1833 10.2067 38.6935 11.0674Z" fill="#F7DAAB"/>
<path d="M43.9136 13.9659C43.4878 14.0004 42.8003 13.9702 41.8996 13.562C41.7433 12.5853 41.8946 11.9146 42.041 11.5128C42.6976 9.70431 44.8868 8.81976 47.558 9.24268C47.2618 11.9301 45.8312 13.809 43.9136 13.9659Z" fill="#F7DAAB"/>
<path d="M47.924 18.0277C47.5137 17.9876 46.8586 17.8356 46.0282 17.2705C45.955 16.2685 46.1528 15.626 46.3238 15.2502C47.0936 13.5613 49.2582 13.0631 51.7817 13.9547C51.287 16.5858 49.7712 18.2086 47.924 18.0277Z" fill="#F7DAAB"/>
<path d="M48.4961 22.8699C48.2237 22.6236 47.8346 22.1669 47.5341 21.3119C47.9993 20.5343 48.4722 20.1641 48.7881 19.9777C50.2096 19.1374 52.0111 19.9115 53.3516 21.8995C51.6409 23.5785 49.7212 23.9768 48.4961 22.8699Z" fill="#F7DAAB"/>
<path d="M60.6631 35.305C60.5006 35.7392 60.1333 36.4261 59.21 37.2698C57.9595 37.2747 57.2241 37.0179 56.8104 36.8089C54.9477 35.8666 54.9343 33.5247 56.7259 30.9027C59.8201 31.6183 61.3957 33.3502 60.6631 35.305Z" fill="#D86B79"/>
<path d="M20.0046 53.1214C19.6647 52.9026 19.1615 52.4782 18.6943 51.6183C19.0876 50.7225 19.5535 50.2573 19.8744 50.0103C21.3177 48.9006 23.4351 49.4432 25.2317 51.3439C23.6005 53.3881 21.5358 54.1066 20.0046 53.1214Z" fill="#F7DAAB"/>
<path d="M27.6841 34.1798C28.2069 34.0637 29.0647 33.9842 30.2512 34.3353C30.6087 35.5197 30.5327 36.3782 30.4194 36.9018C29.9078 39.2578 27.3386 40.7306 23.9537 40.6638C23.87 37.2789 25.3302 34.7027 27.6841 34.1798Z" fill="#2F050F"/>
<path d="M22.4513 30.7471C22.996 30.9385 23.8235 31.3516 24.6926 32.3326C24.3112 33.5866 23.7314 34.3072 23.3162 34.7083C21.4471 36.514 18.234 36.3747 15.1954 34.4071C17.137 31.3516 19.9996 29.8858 22.4513 30.7471Z" fill="#2F050F"/>
<path d="M20.2713 25.3828C20.7568 25.8015 21.4415 26.5503 21.918 27.8472C20.9637 28.8457 20.0377 29.2595 19.4247 29.4495C16.6676 30.3038 13.363 28.7557 11.0507 25.5848C14.4362 23.5989 18.0842 23.499 20.2713 25.3828Z" fill="#2F050F"/>
<path d="M21.9158 18.3493C21.8834 19.1093 21.6723 20.3281 20.7223 21.8988C18.8976 22.1043 17.7027 21.7862 16.999 21.4977C13.8331 20.1979 12.705 16.2424 14.0815 11.5269C18.9398 12.2503 22.0608 14.9293 21.9158 18.3493Z" fill="#F7DAAB"/>
<path d="M48.8177 45.2688C48.456 49.2968 44.6729 53.0855 40.5583 54.0785C33.1673 55.8623 28.8543 47.6508 21.5626 48.7556C18.5817 49.2074 14.3404 51.3326 10 59.7679C10 58.789 10 57.8102 10 56.8313C14.1286 49.6845 18.1088 47.6037 21.1959 47.1955C29.0134 46.1625 33.9097 55.4852 40.7427 53.3438C44.2366 52.2488 46.8874 48.5727 47.1661 45.0844C47.5109 40.7707 44.2056 37.0101 41.293 35.1735C34.9371 31.1666 29.2751 35.5816 24.8664 31.5029C21.2635 28.1688 22.1389 22.5307 22.205 22.143C22.882 18.1656 25.8622 14.6042 29.7783 12.8949C31.6473 12.0772 33.731 11.6824 35.878 11.8654C41.7356 12.3636 46.6756 17.039 47.6158 23.1943L47.1563 22.9283C45.9677 17.1959 41.255 13.0173 35.878 12.6915C34.1286 12.586 32.4172 12.8942 30.8465 13.512C26.8234 15.0954 23.7257 18.7124 23.3063 22.6025C23.2529 23.0923 22.8961 26.9809 25.6004 29.852C29.4511 33.9413 34.4586 30.6071 41.0171 34.165C44.5082 36.0587 49.2596 40.3499 48.8177 45.2688Z" fill="#D86B79"/>
<path d="M29.1914 65.869L28.9733 65.9949C26.8671 64.7283 25.5709 63.3568 24.775 62.3378C22.7539 59.751 22.951 58.105 20.6456 55.6385C19.4796 54.3909 18.1158 52.9321 16.4241 53.0693C14.9963 53.1847 13.9844 54.3845 12.3863 56.281C11.2533 57.6251 10.4877 58.8756 10 59.7679C10 58.7588 10 57.7489 10 56.7398C10.1604 56.4302 10.399 56.0108 10.734 55.5471C11.1161 55.0186 13.3524 51.923 16.2397 51.8765C18.7583 51.8357 20.5851 54.134 21.5626 55.3634C23.528 57.8362 23.1255 59.3583 24.9579 61.9705C26.3484 63.9528 28.0324 65.1688 29.1914 65.869Z" fill="#F7DAAB"/>
<path d="M23.2296 69.3101L21.5344 70.289C16.4086 73.2487 10 69.5494 10 63.6291V14.7949C10 8.87464 16.4079 5.17597 21.5344 8.13505L23.2296 9.1139C19.5197 9.18427 16.149 12.1722 16.149 16.3297V62.0943C16.149 66.2511 19.5197 69.239 23.2296 69.3101Z" fill="#B4B4B4"/>
</g>
<defs>
<filter id="filter0_d_355_784" x="0" y="0" width="77.6719" height="85.3314" filterUnits="userSpaceOnUse" color-interpolation-filters="sRGB">
<feFlood flood-opacity="0" result="BackgroundImageFix"/>
<feColorMatrix in="SourceAlpha" type="matrix" values="0 0 0 0 0 0 0 0 0 0 0 0 0 0 0 0 0 0 127 0" result="hardAlpha"/>
<feOffset dy="4"/>
<feGaussianBlur stdDeviation="5"/>
<feComposite in2="hardAlpha" operator="out"/>
<feColorMatrix type="matrix" values="0 0 0 0 0.968627 0 0 0 0 0.854902 0 0 0 0 0.670588 0 0 0 0.5 0"/>
<feBlend mode="normal" in2="BackgroundImageFix" result="effect1_dropShadow_355_784"/>
<feBlend mode="normal" in="SourceGraphic" in2="effect1_dropShadow_355_784" result="shape"/>
</filter>
</defs>
</svg>
